<?xml version="1.0" encoding="utf-8"?>
<!-- Generator: Adobe Illustrator 16.0.0, SVG Export Plug-In . SVG Version: 6.00 Build 0)  -->
<!DOCTYPE svg PUBLIC "-//W3C//DTD SVG 1.1//EN" "http://www.w3.org/Graphics/SVG/1.1/DTD/svg11.dtd">
<svg version="1.1" id="Layer_2" xmlns="http://www.w3.org/2000/svg" xmlns:xlink="http://www.w3.org/1999/xlink" x="0px" y="0px"
	 width="810px" height="370px" viewBox="0 0 810 370" enable-background="new 0 0 810 370" xml:space="preserve">
<text transform="matrix(1 0 0 1 451.46 172.3379)" font-family="'Roboto-Regular'" font-size="18">Smedjebacken</text>
<text transform="matrix(1 0 0 1 654.46 142.1768)" font-family="'Roboto-Regular'" font-size="18">Björsjö</text>
<text transform="matrix(1 0 0 1 703.46 359.3457)" font-family="'Roboto-Regular'" font-size="18">Grängesberg</text>
<path fill="none" stroke="#000000" stroke-width="5" stroke-miterlimit="10" d="M50.212,103.224
	c38.135,0.988,31.646-23.842,36.496-28.63c5.161-5.097,12.998-5.022,19.578-7.422c0.373-1.403,0.517-3.92,0.226-5.374
	c-3.77-3.05-6.968-6.932-8-12.007c-6.072-29.854,36.088-57.8,53.726-30.222c9.794,15.313,4.083,30.749,29.223,22.777
	c16.678-5.289,37.311-11.228,36,14c-0.79,15.191-10.943,18.946-18.749,30.525c-6.67,9.894-13.251,22.511-14.274,33.425
	c-0.554,5.903,0.839,14.31,5.05,19.046c3.016,3.392,12.344,7.659,18.75,9.254c14.505,3.613,27.105-10.712,40.246-16.279
	c6.475-2.744,14.743-7.953,21.974-7.968c6.706-0.014,12.613,4.777,18.758,7.242c6.271,2.516,15.172,6.079,22,2.528
	c8.562-4.452,7.07-13.556,11.497-19.575c3.343-4.545,10.316-8.659,14.995-11.977c2.564-1.819,6.053-2.24,8.532-4.422
	c3.322-2.924,3.94-7.537,7.972-10.048c10.926-6.805,32.162,1.439,46.251-3.001c12.738-4.015,22.706-10.765,36.849-9.6
	c5.974,29.407,8.825,51.885-11.6,74.327c-9.833,10.804-15.304,15.964-11.498,31.744c3.497,14.502,7.147,28.878,21.527,35.5
	c14.944,6.881,31.846-1.516,43.774-11.526c11.538-9.684,23.509-17.542,37.925-20.219c14.529-2.698,33.742-3.877,48.246-0.2
	c15.841,4.017,28.911,8.207,45.777,8.223c15.494,0.015,25.156-7.839,36.196-17.752c5.102-4.583,10.09-11.896,14.581-14.497
	c13.328-7.717,39.392,7.117,50.419,14.001c9.896,6.178,22.122,9.848,29.074,20.274c5.44,8.159,10.201,26.076,10.726,35.973
	c0.587,11.069-3.742,18.152-10.192,25.585c-3.549,4.089-8.092,10.131-2.63,13.264c11.096,6.364,19.673,3.289,30.774,9.348
	c9.719,5.304,18.241,17.382,15.052,27.804c-2.512,8.206-21.389,34.62-30,28"/>
<circle fill="#46A87A" cx="110.46" cy="63.846" r="9.416"/>
<circle fill="#46A87A" cx="163.46" cy="42.015" r="9.416"/>
<circle fill="#46A87A" cx="216.46" cy="60.846" r="9.416"/>
<circle fill="#46A87A" cx="220.46" cy="147.846" r="9.416"/>
<circle fill="#46A87A" cx="257.46" cy="129.015" r="9.416"/>
<circle fill="#46A87A" cx="307.96" cy="135.515" r="9.416"/>
<circle fill="#46A87A" cx="392.96" cy="86.177" r="9.416"/>
<circle fill="#46A87A" cx="434.46" cy="142.177" r="9.416"/>
<circle fill="#46A87A" cx="416.24" cy="175.508" r="9.416"/>
<circle fill="#46A87A" cx="505.85" cy="188.677" r="9.416"/>
<circle fill="#46A87A" cx="570.85" cy="191.677" r="9.416"/>
<circle fill="#46A87A" cx="673.35" cy="157.261" r="9.416"/>
<circle fill="#46A87A" cx="738.454" cy="266.762" r="9.416"/>
<path fill="#057D00" d="M46.904,35.592c-10.994,0-19.906,8.912-19.906,19.906s19.906,40.523,19.906,40.523
	S66.81,66.491,66.81,55.498S57.898,35.592,46.904,35.592z M46.904,67.761c-6.969,0-12.619-5.65-12.619-12.619
	c0-6.97,5.65-12.619,12.619-12.619s12.619,5.649,12.619,12.619C59.523,62.111,53.873,67.761,46.904,67.761z"/>
<path fill="#ED0000" d="M742.622,293.266c-7.502,0-13.584,6.083-13.584,13.585c0,7.501,13.584,27.652,13.584,27.652
	s13.584-20.151,13.584-27.652C756.206,299.349,750.124,293.266,742.622,293.266z M742.622,315.217c-4.755,0-8.612-3.854-8.612-8.609
	s3.857-8.61,8.612-8.61c4.757,0,8.612,3.855,8.612,8.61S747.379,315.217,742.622,315.217z"/>
<text transform="matrix(1 0 0 1 3.7261 126.0991)" font-family="'Roboto-Regular'" font-size="18">Hedemora</text>
<text transform="matrix(1 0 0 1 167.8755 23.2764)" font-family="'Roboto-Regular'" font-size="18">Norrhyttan</text>
<text transform="matrix(1 0 0 1 211.0444 179.2612)" font-family="'Roboto-Regular'" font-size="18">Bondhyttan</text>
<text transform="matrix(1 0 0 1 338.46 67.3457)" font-family="'Roboto-Regular'" font-size="18">Bommansbo</text>
</svg>
